<?xml version="1.0" standalone="no"?>
<!DOCTYPE svg PUBLIC "-//W3C//DTD SVG 20010904//EN"
 "http://www.w3.org/TR/2001/REC-SVG-20010904/DTD/svg10.dtd">
<svg version="1.0" xmlns="http://www.w3.org/2000/svg"
 width="500.000000pt" height="500.000000pt" viewBox="0 0 500.000000 500.000000"
 preserveAspectRatio="xMidYMid meet">

<g transform="translate(0.000000,500.000000) scale(0.100000,-0.100000)"
fill="#000000" stroke="none">
<path d="M0 2500 l0 -2500 2500 0 2500 0 0 2500 0 2500 -2500 0 -2500 0 0
-2500z m1720 880 c10 -6 18 -39 25 -102 l10 -92 70 -27 c39 -14 70 -30 70 -35
0 -5 -22 -39 -50 -76 -32 -43 -55 -66 -65 -64 -8 3 -40 12 -70 20 -161 46
-344 -3 -474 -125 -178 -166 -211 -445 -75 -648 118 -177 337 -266 534 -215
33 8 69 17 80 20 16 4 32 -10 74 -67 60 -81 61 -77 -35 -109 l-61 -21 -7 -87
c-4 -48 -12 -92 -18 -99 -7 -9 -49 -13 -148 -13 -117 0 -139 2 -144 16 -3 9
-9 53 -12 99 l-7 83 -66 25 c-36 14 -80 30 -97 38 -31 12 -33 11 -97 -44 -35
-31 -73 -57 -84 -57 -20 0 -203 178 -203 198 0 10 13 28 93 125 l27 34 -24 49
c-13 27 -30 68 -37 92 -14 48 -18 49 -120 54 -98 5 -99 6 -99 164 0 151 1 153
82 155 24 0 60 3 82 7 36 7 39 11 61 68 13 34 31 76 40 94 l17 32 -34 37 c-52
55 -88 101 -88 113 0 21 183 198 205 198 12 0 50 -25 85 -55 65 -57 78 -63 97
-44 5 5 43 22 84 37 l74 28 10 92 c7 63 15 96 25 102 8 5 69 10 135 10 66 0
127 -5 135 -10z m2224 -656 c19 -19 20 -36 4 -52 -36 -36 -96 11 -62 49 21 23
37 24 58 3z m-1094 -194 l0 -180 -35 0 c-24 0 -35 5 -35 15 0 19 -9 19 -34 0
-11 -8 -40 -15 -64 -15 -110 0 -163 157 -81 239 41 41 88 49 139 22 l40 -21 0
60 0 60 35 0 35 0 0 -180z m1240 83 l1 -98 22 25 c12 14 31 38 42 53 18 25 26
28 65 25 l44 -3 -57 -64 -58 -64 23 -26 c12 -14 40 -45 62 -68 l40 -43 -46 0
c-45 0 -49 3 -92 56 l-46 56 0 -56 0 -56 -35 0 -35 0 0 180 0 180 35 0 35 0 0
-97z m-2080 5 l1 -73 32 40 c79 98 90 107 129 103 l38 -3 -65 -77 c-36 -42
-65 -80 -65 -84 0 -3 32 -44 71 -90 l70 -84 -44 0 c-43 0 -47 2 -103 73 l-59
72 -3 -72 -3 -73 -34 0 -35 0 0 170 0 170 35 0 35 0 0 -72z m1035 -48 c28 -66
53 -120 56 -120 3 0 28 53 56 118 l50 117 41 3 42 3 0 -170 0 -171 -35 0 -34
0 -3 106 -3 107 -44 -107 c-40 -98 -45 -106 -70 -106 -25 0 -31 8 -64 93 -55
136 -57 137 -57 15 l0 -108 -35 0 -35 0 0 170 0 170 43 0 43 0 49 -120z m725
85 c0 -32 2 -35 30 -35 25 0 30 -4 30 -25 0 -21 -5 -25 -30 -25 l-31 0 3 -77
c3 -77 3 -78 31 -81 23 -3 27 -8 27 -33 0 -27 -2 -29 -40 -29 -30 0 -47 7 -65
25 -23 22 -25 32 -25 110 0 69 -3 85 -15 85 -9 0 -15 9 -15 25 0 16 6 25 15
25 10 0 15 11 15 35 0 33 2 35 35 35 33 0 35 -2 35 -35z m-1301 -52 c41 -30
63 -81 57 -131 -11 -82 -58 -122 -147 -122 -46 0 -55 4 -90 39 -35 35 -39 44
-39 90 0 69 22 108 73 132 50 23 108 20 146 -8z m1062 1 c18 -16 19 -16 19 -1
0 13 9 17 35 17 l35 0 0 -135 0 -135 -35 0 c-25 0 -35 4 -35 16 0 14 -2 14
-22 0 -28 -20 -90 -20 -127 -1 -58 30 -80 139 -41 203 36 59 125 78 171 36z
m419 -119 l0 -135 -35 0 -35 0 0 135 0 135 35 0 35 0 0 -135z"/>
<path d="M2674 2558 c-23 -11 -44 -48 -44 -77 0 -34 39 -71 74 -71 43 0 68 28
68 76 0 57 -52 95 -98 72z"/>
<path d="M2346 2549 c-21 -16 -26 -29 -26 -63 0 -51 22 -76 67 -76 73 0 95
118 27 149 -33 15 -37 14 -68 -10z"/>
<path d="M3453 2560 c-45 -18 -56 -80 -22 -124 43 -54 119 -21 119 52 0 56
-48 91 -97 72z"/>
</g>
</svg>
